<svg xmlns="http://www.w3.org/2000/svg" xmlns:xlink="http://www.w3.org/1999/xlink" width="500" height="500">
    <circle cx="250" cy="250" r="240" style="fill:#4690b2;stroke-width:20;stroke:black" />
    <g id="ether" transform="translate(205 140) scale(0.15 0.15)" >
        <path d="M 70 170 L 190 170 L 190 95 L 230 95 L 230 60 L 380 60 L 380 95 L 420 95 L 420 170 L 550 170 L 550 420 L 70 420 z" style="fill:black" />
    </g>
    <use href="#ether" transform="translate(0 70)" />
    <use href="#ether" transform="translate(0 140)" />
    <rect x="200" y="100" width="100" height="300"  style="fill:none;stroke:black;stroke-width:10" />
    <g id="arrow-collection">
        <g id="arrow" transform="translate(0 20)">
            <path d="M 320 150 L 370 150 L 370 130 L 400 160 L 370 190 L 370 170 L 320 170" style="fill:black" />
        </g>
        <use href="#arrow" transform="translate(0 70)" />
        <use href="#arrow" transform="translate(0 140)" />
    </g>
    <use href="#arrow-collection" transform-origin="250 250" transform="rotate(180)" />
</svg>